<?xml version="1.0" encoding="UTF-8"?>
<svg version="1.1" xmlns="http://www.w3.org/2000/svg" width="192" height="192">
<path d="M0 0 C3.1657193 0.00314828 6.33048987 -0.02034716 9.49609375 -0.0456543 C34.31992674 -0.12321332 58.35976028 2.05722662 79.31640625 16.56567383 C98.52536928 35.77463686 100.35418706 63.40025686 100.38867188 89.06567383 C100.38649658 90.11625977 100.38432129 91.1668457 100.38208008 92.24926758 C100.3789318 95.41498688 100.40242723 98.57975745 100.42773438 101.74536133 C100.5052934 126.56919432 98.32485346 150.60902786 83.81640625 171.56567383 C64.60744322 190.77463686 36.98182322 192.60345464 11.31640625 192.63793945 C10.26582031 192.63576416 9.21523437 192.63358887 8.1328125 192.63134766 C4.9670932 192.62819937 1.80232263 192.65169481 -1.36328125 192.67700195 C-26.18711424 192.75456098 -50.22694778 190.57412103 -71.18359375 176.06567383 C-90.39255678 156.8567108 -92.22137456 129.23109079 -92.25585938 103.56567383 C-92.25368408 102.51508789 -92.25150879 101.46450195 -92.24926758 100.38208008 C-92.2461193 97.21636078 -92.26961473 94.05159021 -92.29492188 90.88598633 C-92.3724809 66.06215334 -90.19204096 42.02231979 -75.68359375 21.06567383 C-55.64379856 1.02587864 -26.63397351 -0.05514703 0 0 Z " fill="#6366F1" transform="translate(91.93359375,-0.315673828125)"/>
<path d="M0 0 C2.26991703 1.75426843 2.92963241 2.53315265 3.36328125 5.41015625 C3.33814453 6.72306641 3.33814453 6.72306641 3.3125 8.0625 C3.30863281 8.94035156 3.30476563 9.81820312 3.30078125 10.72265625 C3 13 3 13 1 15 C0.28072705 17.31765729 -0.3909893 19.65095874 -1 22 C-0.38592285 21.62713867 0.2281543 21.25427734 0.86083984 20.87011719 C3.69429439 19.15567765 6.53454517 17.45281438 9.375 15.75 C10.34050781 15.16347656 11.30601562 14.57695313 12.30078125 13.97265625 C18.36653121 10.34949017 24.36842096 7.42399181 31 5 C31.7525708 4.70222656 32.5051416 4.40445313 33.28051758 4.09765625 C36.32468345 2.90135247 38.69945627 2 42 2 C42 4.64 42 7.28 42 10 C40.82566406 10.46148437 39.65132813 10.92296875 38.44140625 11.3984375 C22.43619735 17.82798057 8.15630783 26.16425307 -6 36 C-6.96808594 36.65742187 -7.93617188 37.31484375 -8.93359375 37.9921875 C-14.86438683 42.12845296 -19.45575383 46.41026666 -24 52 C-58.62396694 92.00991736 -58.62396694 92.00991736 -74.125 93.25 C-77 93 -77 93 -79 91 C-79.53944628 87.65213874 -79.73414853 85.17818737 -77.88916016 82.21728516 C-76.27694233 80.31854447 -74.58455735 78.56305966 -72.8125 76.8125 C-72.17683105 76.16176514 -71.54116211 75.51103027 -70.88623047 74.84057617 C-68.94510199 72.87127701 -66.97799317 70.93220397 -65 69 C-64.44521973 68.45085937 -63.89043945 67.90171875 -63.31884766 67.3359375 C-53.42294809 57.60206533 -42.47219298 49.02019785 -30.6875 41.6875 C-23.86472914 36.98966619 -19.53895876 29.78783095 -15 23 C-14.29230469 21.95328125 -13.58460937 20.9065625 -12.85546875 19.828125 C-9.69074308 15.00441682 -7.1925875 10.32485536 -5 5 C-16.89820395 6.25477337 -27.44785531 7.63961622 -37.92578125 13.8203125 C-40 15 -40 15 -43.375 16.375 C-52.53455036 20.48100533 -60.31357719 26.63742506 -68 33 C-68.59941406 33.45246094 -69.19882813 33.90492187 -69.81640625 34.37109375 C-73.82011175 37.43157038 -75.74914488 40.5848611 -78 45 C-75.36 45 -72.72 45 -70 45 C-69.67 46.65 -69.34 48.3 -69 50 C-72.70577577 52.47051718 -75.7019607 52.55512836 -80 52 C-82.8125 50.6875 -82.8125 50.6875 -85 49 C-85.598125 48.566875 -86.19625 48.13375 -86.8125 47.6875 C-88 46 -88 46 -88.625 43.3125 C-87.66334804 38.21574464 -84.62682639 35.56147817 -81 32 C-80.27425781 31.28714844 -79.54851562 30.57429688 -78.80078125 29.83984375 C-63.66406214 15.65386072 -45.82102202 5.12649772 -26 -1 C-25.25492188 -1.24492188 -24.50984375 -1.48984375 -23.7421875 -1.7421875 C-15.64852496 -4.13424161 -7.39253243 -4.15829949 0 0 Z " fill="#F7F7FE" transform="translate(136,55)"/>
<path d="M0 0 C1.68142233 12.58519134 1.68142233 12.58519134 -2.203125 18.1640625 C-5.04847697 20.92389843 -7.95944021 23.45931485 -11 26 C-13.47741351 28.55233529 -15.74574466 31.24971026 -18 34 C-18.74636719 34.9075 -19.49273437 35.815 -20.26171875 36.75 C-31.10226688 50.36450314 -39.54189457 65.31447167 -47 81 C-35.73394955 75.3594074 -35.73394955 75.3594074 -25.61328125 67.93359375 C-24 67 -24 67 -21.79296875 67.34765625 C-21.20128906 67.56292969 -20.60960937 67.77820313 -20 68 C-19.67323796 71.09620427 -19.6081331 72.50653797 -21.58203125 74.9921875 C-38.36715442 89.16106555 -38.36715442 89.16106555 -46.9375 90.4375 C-51.05953354 89.84863807 -52.37271714 88.13814341 -55 85 C-57.50527199 81.24209202 -57.09803323 79.69703804 -56.49902344 75.39892578 C-55.71739453 71.64144746 -54.31175791 68.37061131 -52.625 64.9375 C-52.27630859 64.21361084 -51.92761719 63.48972168 -51.56835938 62.74389648 C-43.93925761 47.44754745 -32.88814415 34.0874011 -21.3671875 21.5859375 C-19.38738132 19.42317894 -17.46502037 17.23022723 -15.5625 15 C-12.54922288 11.53147957 -9.36392032 8.25609601 -6.125 5 C-5.63588135 4.50628906 -5.1467627 4.01257813 -4.64282227 3.50390625 C-1.12340652 0 -1.12340652 0 0 0 Z " fill="#F8F8FE" transform="translate(178,72)"/>
<path d="M0 0 C0.66 0.33 1.32 0.66 2 1 C-2.29 5.29 -6.58 9.58 -11 14 C-8.03 14.495 -8.03 14.495 -5 15 C-5 15.33 -5 15.66 -5 16 C-7.64 16 -10.28 16 -13 16 C-11.68180906 8.91278518 -5.41368143 4.25360684 0 0 Z " fill="#8082F3" transform="translate(71,84)"/>
</svg>
