<?xml version="1.0" standalone="no"?><!DOCTYPE svg PUBLIC "-//W3C//DTD SVG 1.1//EN" "http://www.w3.org/Graphics/SVG/1.1/DTD/svg11.dtd"><svg t="1781083577438" class="icon" viewBox="0 0 1024 1024" version="1.1" xmlns="http://www.w3.org/2000/svg" p-id="13731" xmlns:xlink="http://www.w3.org/1999/xlink" width="256" height="256"><path d="M509.8496 517.12m-436.2752 0a436.2752 436.2752 0 1 0 872.5504 0 436.2752 436.2752 0 1 0-872.5504 0Z" fill="#FFCFF1" p-id="13732"></path><path d="M509.8496 517.12m-309.248 0a309.248 309.248 0 1 0 618.496 0 309.248 309.248 0 1 0-618.496 0Z" fill="#F374C7" p-id="13733"></path><path d="M506.88 280.5248c-154.0608 0-281.7536 112.64-305.3056 260.0448 11.9808 159.8464 145.408 285.8496 308.2752 285.8496 154.0608 0 281.7536-112.64 305.3056-260.0448C803.1744 406.528 669.7984 280.5248 506.88 280.5248z" fill="#F064BA" p-id="13734"></path><path d="M506.88 366.2336c-141.4144 0-260.5568 94.9248-297.4208 224.512 33.024 135.2704 154.9312 235.6736 300.3904 235.6736 141.4144 0 260.5568-94.9248 297.4208-224.512C774.2464 466.6368 652.288 366.2336 506.88 366.2336z" fill="#EE4FA8" p-id="13735"></path><path d="M506.88 451.8912c-126.1568 0-234.5472 75.5712-282.6752 183.8592 46.5408 111.9232 156.8768 190.6176 285.6448 190.6176 126.1568 0 234.5472-75.5712 282.6752-183.8592-46.5408-111.872-156.8768-190.6176-285.6448-190.6176z" fill="#EB3C99" p-id="13736"></path><path d="M506.88 537.6c-109.2096 0-205.1072 56.6272-260.1472 142.08 54.528 88.0128 151.9104 146.688 263.0656 146.688 109.2096 0 205.1072-56.6272 260.1472-142.08C715.4688 596.2752 618.0352 537.6 506.88 537.6z" fill="#E92385" p-id="13737"></path><path d="M713.3184 284.3136l-54.0672 146.432c-29.9008-51.5584-85.6576-86.3232-149.4528-86.3232-95.1808 0-172.6464 77.4656-172.6464 172.6464s77.4656 172.6464 172.6464 172.6464c80.5376 0 148.3776-55.4496 167.3728-130.1504l82.7904-224.3072a309.8368 309.8368 0 0 0-46.6432-50.944z m-203.4688 344.0128c-61.3376 0-111.2064-49.92-111.2064-111.2064s49.92-111.2064 111.2064-111.2064c61.3376 0 111.2064 49.92 111.2064 111.2064s-49.8688 111.2064-111.2064 111.2064z" fill="#FFFFFF" p-id="13738"></path></svg>