<?xml version="1.0" standalone="no"?><!DOCTYPE svg PUBLIC "-//W3C//DTD SVG 1.1//EN" "http://www.w3.org/Graphics/SVG/1.1/DTD/svg11.dtd"><svg t="1781083627103" class="icon" viewBox="0 0 1024 1024" version="1.1" xmlns="http://www.w3.org/2000/svg" p-id="17247" xmlns:xlink="http://www.w3.org/1999/xlink" width="256" height="256"><path d="M509.8496 508.7744m-431.1552 0a431.1552 431.1552 0 1 0 862.3104 0 431.1552 431.1552 0 1 0-862.3104 0Z" fill="#F374C7" p-id="17248"></path><path d="M505.7024 178.944c-214.7328 0-392.7552 157.0304-425.6256 362.496 16.7424 222.8224 202.7008 398.4384 429.7728 398.4384 214.7328 0 392.7552-157.0304 425.6256-362.496-16.6912-222.8224-202.6496-398.4384-429.7728-398.4384z" fill="#F064BA" p-id="17249"></path><path d="M505.7024 298.3936c-197.12 0-363.2128 132.352-414.6176 312.9856 46.0288 188.5696 216.0128 328.5504 418.7648 328.5504 197.12 0 363.2128-132.352 414.6176-312.9856-46.08-188.5696-216.0128-328.5504-418.7648-328.5504z" fill="#EE4FA8" p-id="17250"></path><path d="M505.7024 417.8944c-175.872 0-327.0144 105.3184-394.0864 256.3072 64.8704 156.0064 218.7264 265.7792 398.2336 265.7792 175.872 0 327.0144-105.3184 394.0864-256.3072-64.8704-156.0576-218.7264-265.7792-398.2336-265.7792z" fill="#EB3C99" p-id="17251"></path><path d="M505.7024 537.344c-152.2176 0-285.9008 78.9504-362.6496 198.0928 75.9808 122.7264 211.8144 204.544 366.7456 204.544 152.2176 0 285.9008-78.9504 362.6496-198.0928-75.9808-122.7776-211.7632-204.544-366.7456-204.544z" fill="#E92385" p-id="17252"></path><path d="M795.0336 185.5488l-76.4928 207.2576c-40.8576-73.216-119.04-122.8288-208.6912-122.8288-131.6864 0-238.848 107.1616-238.848 238.848s107.1616 238.848 238.848 238.848c111.4624 0 205.2608-76.7488 231.5264-180.1216l115.9168-313.9584a436.3264 436.3264 0 0 0-62.2592-68.0448z m-285.184 480.1536c-86.528 0-156.928-70.4-156.928-156.928s70.4-156.928 156.928-156.928 156.928 70.4 156.928 156.928-70.4 156.928-156.928 156.928z" fill="#FFFFFF" p-id="17253"></path></svg>