<?xml version="1.0" standalone="no"?><!DOCTYPE svg PUBLIC "-//W3C//DTD SVG 1.1//EN" "http://www.w3.org/Graphics/SVG/1.1/DTD/svg11.dtd"><svg t="1781083442200" class="icon" viewBox="0 0 1024 1024" version="1.1" xmlns="http://www.w3.org/2000/svg" p-id="8796" xmlns:xlink="http://www.w3.org/1999/xlink" width="256" height="256"><path d="M849.9 324.6C799.8 274.5 733.2 247 662.3 247c-70.9 0-137.5 27.6-187.6 77.6C424.6 374.7 397 441.2 397 512c0 70.8 27.6 137.3 77.7 187.4 50.1 50.1 116.7 77.6 187.6 77.6 70.9 0 137.5-27.6 187.6-77.6 50.1-50.1 77.7-116.6 77.7-187.4 0.1-70.8-27.5-137.4-77.7-187.4zM674.8 524.4c-6.9 6.9-18.1 6.9-25 0-6.9-6.9-6.9-18.1 0-25 6.9-6.9 18.1-6.9 25 0 7 6.9 7 18.1 0 25z" fill="#24222D" p-id="8797"></path><path d="M787.4 387c-6.9-6.9-18.1-6.9-25 0-6.9 6.9-6.9 18.1 0 25 55.2 55.1 55.2 144.8 0 199.9-6.9 6.9-6.9 18.1 0 25 6.9 6.9 18.1 6.9 25 0 69-68.9 69-181 0-249.9z" fill="#FF6666" p-id="8798"></path><path d="M662.4 462.7c-27.3 0-49.3 22-49.3 49.3 0 27.2 22.1 49.3 49.3 49.3 27.2 0 49.3-22.1 49.3-49.3 0-27.3-22.1-49.3-49.3-49.3z m0 65.7c-9.1 0-16.4-7.3-16.4-16.4 0-9.1 7.3-16.4 16.4-16.4 9.1 0 16.4 7.3 16.4 16.4 0 9-7.4 16.4-16.4 16.4z" fill="#FFFFFF" p-id="8799"></path><path d="M654.4 794.3H105.7c-4.4 0-8-3.6-8-8V237.6c0-4.4 3.6-8 8-8h548.7c4.4 0 8 3.6 8 8v548.7c0 4.4-3.6 8-8 8z" fill="#FF6666" p-id="8800"></path><path d="M380 511.9m-160.6 0a160.6 160.6 0 1 0 321.2 0 160.6 160.6 0 1 0-321.2 0Z" fill="#FFFFFF" p-id="8801"></path><path d="M486 460h-42.7s-11 1.8-8.9-8.9c10.4-25.7 40.1-89.7 48.6-115.4 5.8-17.7-12-17.7-12-17.7h-79.9s-17.8 0-26.6 17.8c-17.1 38-79.1 166.1-96.3 204.2-7.2 19.8 13 17.8 13 17.8H332s8.9 0 6 8.9c-8.1 25.2-28.9 86-48 145.2-7.3 27.2-8.2 39.4-3.8 41.6 4.5 2.2 12.8-9.6 28.7-27.8 64.1-88 153.7-211.8 180-247.8C503.8 460 486 460 486 460z" fill="#FF6666" p-id="8802"></path></svg>