<?xml version="1.0" standalone="no"?><!DOCTYPE svg PUBLIC "-//W3C//DTD SVG 1.1//EN" "http://www.w3.org/Graphics/SVG/1.1/DTD/svg11.dtd"><svg t="1781083298037" class="icon" viewBox="0 0 1024 1024" version="1.1" xmlns="http://www.w3.org/2000/svg" p-id="1867" width="256" height="256" xmlns:xlink="http://www.w3.org/1999/xlink"><path d="M875.556571 685.714286q-0.475429 5.211429-1.188571 10.404571-0.731429 5.174857-1.682286 10.331429-0.950857 5.12-2.139428 10.24-1.206857 5.083429-2.633143 10.130285-1.426286 5.028571-3.090286 10.002286-1.645714 4.955429-3.547428 9.837714-1.883429 4.882286-3.986286 9.673143-2.121143 4.790857-4.443429 9.472-2.340571 4.699429-4.882285 9.270857-2.56 4.571429-5.302858 9.014858-2.742857 4.461714-5.705142 8.777142t-6.125715 8.502858q-3.145143 4.187429-6.491428 8.210285t-6.875429 7.899429q-3.529143 3.876571-7.222857 7.570286-3.712 3.712-7.588571 7.241142-3.858286 3.529143-7.899429 6.875429-4.022857 3.346286-8.210286 6.491429-4.187429 3.163429-8.502857 6.125714-4.315429 2.962286-8.777143 5.705143-4.461714 2.761143-9.033143 5.302857-4.571429 2.56-9.270857 4.900571-4.681143 2.322286-9.490285 4.443429-4.790857 2.121143-9.673143 4.022857-4.882286 1.883429-9.856 3.547429-4.973714 1.645714-10.002286 3.108571-5.046857 1.426286-10.148571 2.614857-5.12 1.206857-10.24 2.157714-5.174857 0.969143-10.368 1.700572-5.174857 0.731429-10.404572 1.206857-5.211429 0.475429-10.459428 0.731429-5.229714 0.237714-10.477715 0.237714-5.229714 0-10.477714-0.256-5.229714-0.237714-10.441143-0.731429-5.229714-0.475429-10.422857-1.188571-5.193143-0.731429-10.331429-1.700572-5.156571-0.950857-10.258285-2.157714-5.12-1.188571-10.148572-2.633143-5.028571-1.426286-10.002285-3.108571-4.973714-1.645714-9.874286-3.547429-4.882286-1.883429-9.673143-4.004571t-9.472-4.443429q-4.699429-2.340571-9.270857-4.882285-4.571429-2.56-9.033143-5.302858-4.461714-2.761143-8.777143-5.723428-4.333714-2.962286-8.502857-6.125714-4.187429-3.145143-8.228571-6.491429-4.022857-3.346286-7.899429-6.875429-3.858286-3.529143-7.570286-7.241142-3.693714-3.693714-7.222857-7.570286-3.529143-3.876571-6.875428-7.899429t-6.509715-8.210285q-3.145143-4.187429-6.107428-8.502858-2.962286-4.315429-5.705143-8.777142-2.761143-4.443429-5.302857-9.014858-2.56-4.571429-4.882286-9.270857-2.322286-4.681143-4.443429-9.472-2.102857-4.790857-4.004571-9.673143-1.883429-4.882286-3.547429-9.837714-1.645714-4.973714-3.090285-10.002286-1.426286-5.046857-2.614857-10.130285-1.188571-5.12-2.139429-10.24-0.969143-5.156571-1.682286-10.331429-0.731429-5.193143-1.188571-10.404571-0.932571 10.258286-0.932572 20.553143 0 5.558857 0.256 11.117714 0.274286 5.540571 0.822858 11.062857 0.548571 5.540571 1.371428 11.026286 0.804571 5.485714 1.901714 10.953143 1.097143 5.449143 2.432 10.825142 1.353143 5.394286 2.962286 10.715429 1.627429 5.302857 3.492572 10.550857 1.883429 5.229714 4.022857 10.349714 2.102857 5.138286 4.498285 10.166858 2.377143 5.010286 4.992 9.910857 2.633143 4.900571 5.485715 9.673143 2.852571 4.754286 5.942857 9.380571 3.108571 4.626286 6.4 9.088 3.328 4.461714 6.857143 8.740571 3.529143 4.297143 7.259428 8.411429 3.748571 4.114286 7.68 8.045714t8.045715 7.68q4.132571 3.712 8.429714 7.241143 4.297143 3.529143 8.777143 6.838857 4.461714 3.291429 9.088 6.4 4.626286 3.072 9.398857 5.924572 4.772571 2.870857 9.691428 5.485714 4.900571 2.614857 9.929143 4.992 5.028571 2.377143 10.166857 4.498286 5.138286 2.121143 10.386286 4.004571 5.229714 1.865143 10.550857 3.474286 5.339429 1.609143 10.733715 2.962286 5.394286 1.353143 10.843428 2.432 5.467429 1.097143 10.971429 1.901714 5.485714 0.822857 11.026285 1.371428t11.099429 0.804572q5.558857 0.274286 11.117714 0.274286 5.577143 0 11.136-0.274286 5.540571-0.274286 11.081143-0.804572 5.540571-0.548571 11.044572-1.371428 5.504-0.804571 10.971428-1.901714 5.449143-1.078857 10.843429-2.432 5.394286-1.353143 10.715428-2.962286 5.339429-1.609143 10.569143-3.474286 5.248-1.883429 10.386286-4.004571 5.12-2.121143 10.166857-4.498286 5.028571-2.377143 9.929143-4.992 4.918857-2.614857 9.691428-5.485714 4.754286-2.852571 9.398858-5.942857 4.626286-3.072 9.088-6.4 4.461714-3.291429 8.777142-6.820572 4.297143-3.529143 8.411429-7.259428 4.132571-3.730286 8.045714-7.661715 3.949714-3.931429 7.68-8.045714 3.748571-4.114286 7.277715-8.411429 3.529143-4.278857 6.838857-8.740571 3.309714-4.461714 6.4-9.088 3.108571-4.626286 5.961143-9.380571t5.485714-9.673143q2.614857-4.900571 4.992-9.910857 2.377143-5.028571 4.516571-10.166858 2.121143-5.12 4.004572-10.349714 1.865143-5.229714 3.474285-10.550857 1.627429-5.302857 2.980572-10.715429 1.353143-5.376 2.432-10.825142 1.097143-5.449143 1.901714-10.953143 0.822857-5.485714 1.371429-11.026286 0.548571-5.522286 0.804571-11.062857 0.274286-5.558857 0.274286-11.117714 0-10.294857-0.932572-20.553143z" fill="#F7443A" p-id="1868"></path><path d="M649.837714 479.981714q-5.229714 0-10.477714 0.237715-5.229714 0.237714-10.441143 0.731428-5.229714 0.475429-10.422857 1.188572-5.193143 0.731429-10.331429 1.700571-5.156571 0.950857-10.258285 2.157714-5.12 1.188571-10.148572 2.633143-5.046857 1.426286-10.002285 3.108572-4.973714 1.645714-9.874286 3.547428-4.882286 1.883429-9.673143 4.004572t-9.472 4.443428q-4.699429 2.340571-9.270857 4.900572-4.571429 2.541714-9.033143 5.302857-4.461714 2.742857-8.777143 5.705143-4.333714 2.962286-8.502857 6.125714-4.187429 3.163429-8.228571 6.509714-4.022857 3.328-7.899429 6.857143-3.858286 3.529143-7.570286 7.241143-3.693714 3.693714-7.222857 7.570286-3.529143 3.876571-6.875428 7.899428t-6.509715 8.228572q-3.145143 4.169143-6.107428 8.484571-2.962286 4.315429-5.705143 8.777143-2.761143 4.443429-5.302857 9.014857-2.56 4.571429-4.882286 9.270857-2.322286 4.681143-4.443429 9.472-2.102857 4.790857-4.004571 9.691429-1.883429 4.864-3.547429 9.837714-1.645714 4.955429-3.090285 9.984-1.426286 5.046857-2.614857 10.130286-1.188571 5.12-2.139429 10.24-0.969143 5.156571-1.682286 10.331428-0.731429 5.193143-1.188571 10.404572 0.475429 5.211429 1.188571 10.404571 0.731429 5.174857 1.682286 10.331429 0.950857 5.12 2.139429 10.24 1.188571 5.083429 2.614857 10.130285 1.444571 5.028571 3.108571 10.002286 1.645714 4.937143 3.529143 9.837714 1.901714 4.882286 4.022857 9.673143 2.102857 4.790857 4.425143 9.472 2.340571 4.699429 4.882286 9.270857t5.302857 9.014858q2.742857 4.461714 5.705143 8.777142t6.107428 8.502858q3.163429 4.187429 6.509715 8.210285t6.875428 7.899429q3.529143 3.876571 7.222857 7.570286 3.712 3.712 7.570286 7.241142 3.876571 3.529143 7.917714 6.875429 4.022857 3.346286 8.210286 6.491429 4.169143 3.163429 8.502857 6.125714 4.315429 2.962286 8.777143 5.705143 4.443429 2.761143 9.033143 5.302857 4.571429 2.56 9.270857 4.900571 4.681143 2.322286 9.472 4.443429 4.790857 2.121143 9.691429 4.022857 4.882286 1.883429 9.856 3.547429 4.955429 1.645714 10.002285 3.108571 5.046857 1.426286 10.148572 2.614857 5.101714 1.206857 10.24 2.157714 5.156571 0.969143 10.349714 1.700572t10.422857 1.206857q5.211429 0.475429 10.441143 0.731429 5.248 0.237714 10.477714 0.237714 5.248 0 10.477715-0.256 5.248-0.237714 10.459428-0.731429 5.229714-0.475429 10.422857-1.188571 5.174857-0.731429 10.331429-1.700572 5.156571-0.950857 10.24-2.157714 5.12-1.188571 10.166857-2.633143 5.028571-1.426286 10.002286-3.108571 4.973714-1.645714 9.856-3.547429 4.882286-1.883429 9.691428-4.004571 4.790857-2.121143 9.472-4.443429 4.699429-2.340571 9.270857-4.882285 4.571429-2.56 9.033143-5.302858 4.461714-2.761143 8.777143-5.723428 4.333714-2.962286 8.502857-6.125714 4.187429-3.145143 8.228572-6.491429 4.022857-3.346286 7.881143-6.875429 3.876571-3.529143 7.588571-7.241142 3.693714-3.693714 7.222857-7.570286 3.529143-3.876571 6.875429-7.899429t6.491428-8.210285q3.163429-4.187429 6.125715-8.502858 2.944-4.315429 5.705142-8.777142 2.742857-4.443429 5.302858-9.014858 2.56-4.571429 4.882285-9.270857 2.322286-4.681143 4.443429-9.472 2.102857-4.790857 3.986286-9.673143 1.901714-4.882286 3.547428-9.837714 1.664-4.973714 3.108572-10.002286 1.408-5.046857 2.614857-10.130285 1.188571-5.12 2.139428-10.24 0.969143-5.156571 1.682286-10.331429 0.713143-5.193143 1.188571-10.404571-0.475429-5.211429-1.188571-10.404572-0.731429-5.174857-1.682286-10.313143-0.950857-5.156571-2.139428-10.24-1.206857-5.12-2.633143-10.148571-1.426286-5.028571-3.090286-9.984-1.645714-4.973714-3.547428-9.856-1.883429-4.882286-3.986286-9.673143-2.121143-4.790857-4.443429-9.472-2.340571-4.699429-4.882285-9.270857-2.56-4.571429-5.302858-9.014857-2.742857-4.461714-5.705142-8.777143t-6.125715-8.502857q-3.145143-4.169143-6.491428-8.210286-3.346286-4.022857-6.875429-7.899428t-7.222857-7.570286q-3.712-3.712-7.588571-7.241143-3.858286-3.529143-7.899429-6.857143-4.022857-3.346286-8.210286-6.509714-4.169143-3.163429-8.502857-6.125714-4.315429-2.944-8.777143-5.705143t-9.033143-5.302857q-4.571429-2.56-9.270857-4.900572-4.681143-2.322286-9.472-4.443428-4.809143-2.121143-9.691428-4.022858-4.882286-1.883429-9.856-3.547428-4.973714-1.645714-10.002286-3.108572-5.046857-1.426286-10.148571-2.614857-5.12-1.206857-10.24-2.157714-5.174857-0.969143-10.368-1.700571-5.174857-0.731429-10.404572-1.206858-5.211429-0.475429-10.459428-0.731428-5.229714-0.219429-10.477715-0.219429z m-104.338285 256.073143q3.2 0 6.363428-0.310857 3.181714-0.310857 6.326857-0.932571 3.126857-0.621714 6.180572-1.554286 3.053714-0.914286 6.016-2.139429 2.944-1.225143 5.76-2.724571 2.816-1.499429 5.485714-3.291429 2.651429-1.755429 5.12-3.785143 2.468571-2.011429 4.736-4.278857 2.249143-2.249143 4.278857-4.717714 2.011429-2.468571 3.803429-5.12 1.773714-2.651429 3.291428-5.467429 1.499429-2.816 2.724572-5.76 1.206857-2.944 2.139428-5.997714 0.914286-3.053714 1.554286-6.180571 0.621714-3.126857 0.932571-6.308572 0.310857-3.163429 0.310858-6.363428 0-3.181714-0.310858-6.363429-0.310857-3.163429-0.932571-6.290286-0.621714-3.145143-1.554286-6.180571-0.914286-3.053714-2.139428-6.016-1.225143-2.925714-2.742857-5.76-1.499429-2.797714-3.291429-5.449143-1.755429-2.669714-3.785143-5.12-2.011429-2.468571-4.278857-4.736-2.267429-2.249143-4.736-4.278857-2.468571-2.011429-5.12-3.785143-2.669714-1.773714-5.485714-3.291428-2.816-1.499429-5.76-2.706286-2.962286-1.225143-6.016-2.157714-3.053714-0.914286-6.180572-1.536-3.145143-0.621714-6.326857-0.950858-3.163429-0.310857-6.363428-0.310857t-6.381715 0.310857q-3.181714 0.329143-6.308571 0.950858-3.126857 0.621714-6.198857 1.536-3.053714 0.914286-5.997715 2.157714-2.962286 1.206857-5.778285 2.724571-2.816 1.499429-5.467429 3.273143-2.651429 1.773714-5.12 3.785143-2.468571 2.029714-4.736 4.278857-2.267429 2.267429-4.278857 4.736-2.029714 2.450286-3.803429 5.12-1.773714 2.651429-3.291428 5.449143-1.499429 2.816-2.724572 5.76-1.225143 2.962286-2.139428 6.016-0.932571 3.035429-1.554286 6.180571-0.621714 3.108571-0.950857 6.290286-0.310857 3.181714-0.310857 6.363429 0 3.2 0.310857 6.363428 0.329143 3.181714 0.950857 6.308572 0.621714 3.126857 1.554286 6.180571 0.914286 3.053714 2.139428 5.997714t2.742858 5.76q1.499429 2.816 3.273142 5.485715 1.773714 2.633143 3.803429 5.101714 2.011429 2.468571 4.278857 4.717714 2.267429 2.267429 4.736 4.278857 2.468571 2.011429 5.12 3.803429 2.651429 1.773714 5.485714 3.273143 2.797714 1.499429 5.76 2.724571 2.944 1.225143 5.997715 2.139429 3.072 0.932571 6.198857 1.554286 3.126857 0.621714 6.308571 0.932571 3.181714 0.310857 6.381715 0.310857zM742.528 137.380571q63.707429 51.986286 148.224 8.265143 9.691429-6.912 18.358857 0.347429c4.626286 3.894857 7.771429 12.032 2.212572 25.051428q-37.888 107.209143-197.632 142.262858-10.130286 4.425143-20.937143 6.692571-10.806857 2.249143-21.869715 2.249143-2.614857 0-5.211428-0.109714-2.614857-0.146286-5.211429-0.384-2.596571-0.274286-5.193143-0.64-2.578286-0.384-5.138285-0.914286-2.56-0.493714-5.101715-1.133714-2.541714-0.621714-5.028571-1.389715-2.505143-0.749714-4.973714-1.645714-2.450286-0.859429-4.864-1.865143-2.413714-1.005714-4.772572-2.121143-2.377143-1.097143-4.681143-2.340571-2.304-1.225143-4.534857-2.56-2.249143-1.353143-4.406857-2.797714-2.194286-1.462857-4.278857-2.998858-2.102857-1.554286-4.114286-3.218285-2.011429-1.645714-3.968-3.401143-1.92-1.755429-3.766857-3.602286-1.865143-1.828571-3.602286-3.766857-1.755429-1.938286-3.419428-3.949714-1.645714-2.011429-3.218286-4.114286-1.554286-2.102857-2.998857-4.260571-1.462857-2.176-2.797714-4.406858-1.353143-2.249143-2.578286-4.553142-1.225143-2.285714-2.340571-4.644572-1.133714-2.377143-2.121143-4.772571-1.005714-2.413714-1.883429-4.864-0.877714-2.468571-1.645714-4.955429-0.749714-2.505143-1.389714-5.028571-0.64-2.541714-1.152-5.083429-0.493714-2.56-0.877715-5.138286-0.384-2.596571-0.64-5.193142-0.256-2.596571-0.384-5.193143-0.128-2.614857-0.128-5.211429 0-2.614857 0.128-5.211428 0.128-2.614857 0.365715-5.211429 0.274286-2.596571 0.658285-5.174857 0.365714-2.578286 0.877715-5.138286 0.512-2.56 1.152-5.083428 0.64-2.541714 1.389714-5.028572 0.768-2.505143 1.645714-4.955428 0.877714-2.468571 1.883429-4.864 0.987429-2.413714 2.121143-4.772572 1.097143-2.377143 2.340571-4.662857 1.225143-2.304 2.56-4.534857 1.353143-2.230857 2.816-4.406857 1.444571-2.176 2.998857-4.260572 1.554286-2.102857 3.218286-4.114285 1.645714-2.011429 3.419428-3.949715 1.737143-1.938286 3.602286-3.785143 1.828571-1.828571 3.766857-3.584 1.938286-1.755429 3.968-3.419428 2.011429-1.645714 4.114286-3.2 2.102857-1.554286 4.278857-3.017143 2.157714-1.444571 4.388572-2.779429 2.249143-1.353143 4.571428-2.56 2.304-1.243429 4.662857-2.358857t4.754286-2.121143q2.432-0.987429 4.882286-1.865142 2.468571-0.877714 4.973714-1.645715 2.486857-0.749714 5.028571-1.389714 2.541714-0.621714 5.101715-1.133714 2.56-0.512 5.138285-0.914286 2.596571-0.365714 5.193143-0.621714 2.596571-0.256 5.211429-0.384 2.596571-0.128 5.211428-0.128 8.832 0 17.554286 1.462857 8.704 1.444571 17.042286 4.315428 8.356571 2.852571 16.128 7.058286 7.753143 4.205714 14.72 9.618286v-0.091429l1.042286 0.914286q2.633143 2.102857 5.156571 4.388571z" fill="#FA6257" p-id="1869"></path><path d="M569.252571 247.552l-0.128 0.054857 0.548572 1.243429-0.420572-1.298286z m8.722286 20.260571l93.257143 213.174858q7.168 0.676571 14.262857 1.810285 7.094857 1.115429 14.098286 2.706286 7.021714 1.572571 13.915428 3.584 6.893714 2.011429 13.641143 4.461714 6.765714 2.450286 13.348572 5.302857 6.582857 2.889143 12.982857 6.162286 6.4 3.291429 12.562286 6.948572 6.162286 3.693714 12.068571 7.753142 5.942857 4.059429 11.593143 8.484572 5.668571 4.425143 11.026286 9.197714t10.404571 9.874286q5.046857 5.12 9.764571 10.532571 4.717714 5.412571 9.069715 11.117715 4.370286 5.705143 8.356571 11.666285 3.986286 5.961143 7.588572 12.178286 3.602286 6.217143 6.802285 12.617143l-128.822857-294.436572q-5.046857 1.206857-10.203428 2.340572-10.130286 4.443429-20.937143 6.710857t-21.869715 2.267429q-3.529143 0-7.058285-0.237715-3.510857-0.237714-7.021715-0.694857-3.492571-0.475429-6.948571-1.170286-3.474286-0.694857-6.875429-1.627428-3.419429-0.914286-6.765714-2.066286-3.328-1.152-6.582857-2.523428-3.254857-1.371429-6.4-2.925715-3.163429-1.590857-6.217143-3.382857-3.035429-1.773714-5.961143-3.766857-2.925714-1.974857-5.705143-4.150857-2.779429-2.176-5.412571-4.516572-2.633143-2.358857-5.12-4.882285-2.450286-2.523429-4.754286-5.193143-2.304-2.669714-4.406857-5.485714-2.121143-2.834286-4.041143-5.796572t-3.657143-6.034286z" fill="#F7443A" p-id="1870"></path><path d="M610.523429 671.122286q0 3.2-0.310858 6.363428-0.310857 3.181714-0.932571 6.308572-0.621714 3.126857-1.554286 6.180571-0.914286 3.053714-2.157714 5.997714-1.206857 2.944-2.724571 5.76-1.499429 2.816-3.291429 5.467429-1.755429 2.651429-3.785143 5.12-2.029714 2.468571-4.297143 4.717714-2.249143 2.249143-4.717714 4.278857-2.468571 2.011429-5.12 3.803429-2.669714 1.773714-5.485714 3.273143-2.816 1.499429-5.76 2.724571-2.962286 1.225143-6.016 2.139429t-6.180572 1.554286q-3.145143 0.621714-6.326857 0.932571-3.181714 0.310857-6.363428 0.310857-3.2 0-6.381715-0.310857t-6.308571-0.932571q-3.126857-0.621714-6.198857-1.554286-3.053714-0.914286-5.997715-2.139429-2.962286-1.225143-5.778285-2.742857-2.816-1.481143-5.485715-3.254857-2.633143-1.773714-5.12-3.803429-2.468571-2.011429-4.717714-4.278857-2.267429-2.249143-4.278857-4.717714-2.029714-2.468571-3.803429-5.12-1.773714-2.651429-3.291428-5.467429-1.499429-2.816-2.724572-5.76-1.225143-2.944-2.157714-5.997714-0.914286-3.053714-1.536-6.180571t-0.950857-6.308572q-0.310857-3.163429-0.310857-6.363428 0-3.181714 0.310857-6.363429 0.329143-3.163429 0.950857-6.308571 0.621714-3.108571 1.536-6.180572 0.932571-3.035429 2.157714-5.997714 1.225143-2.925714 2.742858-5.76 1.499429-2.816 3.273142-5.467429 1.773714-2.651429 3.803429-5.12 2.011429-2.450286 4.278857-4.717714 2.249143-2.249143 4.736-4.278857 2.468571-2.011429 5.12-3.785143 2.651429-1.773714 5.485714-3.291428 2.797714-1.499429 5.76-2.706286 2.944-1.225143 5.997715-2.157714 3.072-0.914286 6.198857-1.536 3.126857-0.64 6.308571-0.950858 3.181714-0.310857 6.381715-0.310857 3.181714 0 6.363428 0.310857t6.326857 0.950858q3.108571 0.621714 6.180572 1.536 3.053714 0.914286 6.016 2.157714 2.944 1.206857 5.76 2.724571 2.816 1.499429 5.485714 3.273143 2.651429 1.773714 5.12 3.785143 2.468571 2.029714 4.717714 4.278857 2.267429 2.267429 4.297143 4.736 2.011429 2.450286 3.803429 5.12 1.773714 2.633143 3.291428 5.449143 1.499429 2.816 2.706286 5.76 1.225143 2.962286 2.157714 5.997714 0.914286 3.053714 1.554286 6.180572 0.621714 3.145143 0.932571 6.308571 0.310857 3.181714 0.310858 6.363429z" fill="#FFFFFF" p-id="1871"></path><path d="M372.498286 284.470857l17.810285 45.257143c2.962286 7.533714 8.941714 13.494857 16.475429 16.457143l45.348571 17.773714c24.630857 9.691429 24.630857 44.507429 0 54.198857l-45.348571 17.773715c-7.533714 2.944-13.513143 8.905143-16.457143 16.457142l-17.828571 45.238858c-9.691429 24.630857-44.562286 24.630857-54.253715 0l-17.810285-45.257143a29.110857 29.110857 0 0 0-16.457143-16.457143l-45.348572-17.755429c-24.649143-9.691429-24.649143-44.525714 0-54.198857l45.330286-17.773714c7.552-2.962286 13.513143-8.923429 16.457143-16.457143l17.828571-45.257143c9.691429-24.630857 44.580571-24.630857 54.253715 0zM206.08 559.177143l11.264 28.635428c1.865143 4.754286 5.650286 8.521143 10.422857 10.404572l28.672 11.227428c15.579429 6.125714 15.579429 28.16 0 34.267429l-28.672 11.245714c-4.772571 1.883429-8.557714 5.650286-10.422857 10.422857l-11.264 28.617143c-6.125714 15.542857-28.196571 15.542857-34.322286 0l-11.264-28.635428a18.432 18.432 0 0 0-10.422857-10.404572l-28.653714-11.245714c-15.597714-6.034286-15.597714-28.141714 0-34.267429l28.653714-11.227428c4.772571-1.883429 8.557714-5.650286 10.422857-10.422857l11.264-28.617143c6.125714-15.561143 28.196571-15.561143 34.322286 0z" fill="#FFDD00" p-id="1872"></path></svg>